<svg id="Layer_1" data-name="Layer 1" xmlns="http://www.w3.org/2000/svg" width="30" height="30" viewBox="0 0 30 30">
  <defs>
    <style>
      .cls-1 {
        fill: #0072ce;
      }

      .cls-2 {
        fill: #fff;
        fill-rule: evenodd;
      }
    </style>
  </defs>
  <title>mapmarker-abnormality@4x</title>
  <g>
    <g>
      <path class="cls-1" d="M15.23,29Q26.41,18.75,26.4,11.47A11,11,0,0,0,15.23.64,11,11,0,0,0,4.07,11.47Q4.07,18.75,15.23,29Z"/>
      <path class="cls-1" d="M15.23,29.7l-.34-.31C7.38,22.47,3.57,16.44,3.57,11.47A11.51,11.51,0,0,1,15.23.14,11.52,11.52,0,0,1,26.9,11.47c0,5-3.81,11-11.33,17.92Zm0-28.56A10.51,10.51,0,0,0,4.57,11.47c0,4.61,3.58,10.28,10.66,16.87C22.31,21.75,25.9,16.08,25.9,11.47A10.52,10.52,0,0,0,15.23,1.14Z"/>
    </g>
    <path class="cls-2" d="M19.8,10.61a3.52,3.52,0,0,1-.15,1.08,3,3,0,0,1-.43.85,4.13,4.13,0,0,1-.66.74c-.26.22-.56.46-.88.71a5.14,5.14,0,0,0-.51.43,1.52,1.52,0,0,0-.31.38,1.21,1.21,0,0,0-.16.41,2.44,2.44,0,0,0-.05.51v.48h-3v-.71a3.72,3.72,0,0,1,.09-.86,2.72,2.72,0,0,1,.29-.7,4.24,4.24,0,0,1,.46-.61,8.06,8.06,0,0,1,.66-.61l.62-.58a3.81,3.81,0,0,0,.56-.58,1.19,1.19,0,0,0,.22-.73,1.24,1.24,0,0,0-.37-1,1.41,1.41,0,0,0-1-.35,1.4,1.4,0,0,0-1.2.53,2.22,2.22,0,0,0-.44,1.19l-3-.31a4.71,4.71,0,0,1,.52-1.76A4,4,0,0,1,12.13,7.9a4.7,4.7,0,0,1,1.46-.75,6.24,6.24,0,0,1,3.39,0,4.31,4.31,0,0,1,1.44.66,3.36,3.36,0,0,1,1.38,2.83ZM17,18.81a1.69,1.69,0,0,1-.53,1.26,1.83,1.83,0,0,1-1.31.51,2.08,2.08,0,0,1-.71-.13,1.9,1.9,0,0,1-.59-.37,2,2,0,0,1-.41-.56,1.58,1.58,0,0,1-.15-.69,1.71,1.71,0,0,1,.14-.67,1.78,1.78,0,0,1,.4-.57,1.86,1.86,0,0,1,.6-.38,1.92,1.92,0,0,1,.72-.14,1.87,1.87,0,0,1,.71.14,2.1,2.1,0,0,1,.59.37,1.63,1.63,0,0,1,.4.56A1.71,1.71,0,0,1,17,18.81Z"/>
  </g>
</svg>
