<svg id="Layer_1" data-name="Layer 1" xmlns="http://www.w3.org/2000/svg" width="30" height="30" viewBox="0 0 30 30">
  <defs>
    <style>
      .cls-1 {
        fill: #f5a623;
      }

      .cls-2 {
        fill: #fff;
      }
    </style>
  </defs>
  <title>mapmarker-storm-notchecked-outline@4x</title>
  <g>
    <g>
      <path class="cls-1" d="M14.64,28.94C7.54,22.25,4,16.51,4,11.66a11,11,0,0,1,22.06,0c0,4.85-3.57,10.59-10.67,17.28l-.36.34Z"/>
      <path class="cls-2" d="M15,30l-.72-.68C7,22.45,3.44,16.68,3.44,11.66a11.56,11.56,0,0,1,23.12,0c0,5-3.55,10.79-10.84,17.66ZM15,1.24A10.48,10.48,0,0,0,4.49,11.66C4.49,16.31,8,22,15,28.56,22,22,25.51,16.31,25.51,11.66A10.48,10.48,0,0,0,15,1.24Z"/>
    </g>
    <path class="cls-2" d="M15.49,11.84h4.1l-6,9.83,1-6.65H10.41l6.28-9.83Z"/>
  </g>
</svg>
