<svg id="Layer_1" data-name="Layer 1" xmlns="http://www.w3.org/2000/svg" width="30" height="30" viewBox="0 0 30 30">
  <defs>
    <style>
      .cls-1 {
        fill: #0fb7a6;
      }

      .cls-2 {
        fill: #fff;
      }
    </style>
  </defs>
  <title>mapmarker-storm-noaction@4x</title>
  <g>
    <g>
      <path class="cls-1" d="M15.23,29.23Q26.42,18.94,26.41,11.66A11,11,0,0,0,15.23.81,11,11,0,0,0,4.05,11.66Q4.05,18.94,15.23,29.23Z"/>
      <path class="cls-1" d="M15.23,30l-.36-.34c-7.54-6.94-11.36-13-11.36-18A11.57,11.57,0,0,1,15.23.27,11.58,11.58,0,0,1,27,11.66c0,5-3.83,11-11.36,18Zm0-28.62A10.49,10.49,0,0,0,4.59,11.66c0,4.59,3.58,10.26,10.64,16.84,7.06-6.58,10.64-12.25,10.64-16.84A10.49,10.49,0,0,0,15.23,1.35Z"/>
    </g>
    <path class="cls-2" d="M15.76,11.84h4.36L13.68,22.07l1.11-6.92H10.34L17,4.93Z"/>
  </g>
</svg>
