<svg id="Layer_1" data-name="Layer 1" xmlns="http://www.w3.org/2000/svg" width="30" height="30" viewBox="0 0 30 30">
  <defs>
    <style>
      .cls-1 {
        fill: #fff;
      }

      .cls-2 {
        fill: #1d4f91;
      }
    </style>
  </defs>
  <title>mapmarker-storm-notchecked@4x</title>
  <g>
    <g>
      <path class="cls-1" d="M15.23,29.33Q26.51,19,26.51,11.61A11.12,11.12,0,0,0,15.23.67,11.12,11.12,0,0,0,4,11.61Q4,18.95,15.23,29.33Z"/>
      <path class="cls-2" d="M15.23,30l-.33-.31c-7.59-7-11.44-13.07-11.44-18.08A11.62,11.62,0,0,1,15.23.18,11.62,11.62,0,0,1,27,11.61c0,5-3.85,11.1-11.44,18.08Zm0-28.84A10.64,10.64,0,0,0,4.44,11.61c0,4.65,3.63,10.39,10.79,17.06C22.39,22,26,16.27,26,11.61A10.64,10.64,0,0,0,15.23,1.16Z"/>
    </g>
    <path class="cls-2" d="M15.76,11.79h4.4L13.67,22.11l1.11-7H10.3L17,4.82Z"/>
  </g>
</svg>
